<?xml version="1.0" encoding="iso-8859-1"?>
<!-- Generator: Adobe Illustrator 18.1.1, SVG Export Plug-In . SVG Version: 6.00 Build 0)  -->
<svg xmlns="http://www.w3.org/2000/svg" xmlns:xlink="http://www.w3.org/1999/xlink" version="1.1" id="Capa_1" x="0px" y="0px" viewBox="0 0 611.999 611.999" style="enable-background:new 0 0 611.999 611.999;" xml:space="preserve" width="512px" height="512px">
<g>
	<path d="M602.884,160.183c-12.154-12.154-31.861-12.154-44.015,0c-2.238,2.238-4.498,4.312-6.782,6.241L445.572,59.913   c1.929-2.286,4.003-4.545,6.239-6.782c12.156-12.154,12.156-31.861,0-44.015c-12.152-12.154-31.861-12.154-44.015,0   c-49.657,49.657-50.275,107.228-42.353,161.737c-51.206-6.159-104.442-2.531-150.785,43.814   c-46.343,46.342-49.97,99.575-43.81,150.781c-54.509-7.92-112.078-7.304-161.733,42.353c-12.154,12.154-12.154,31.861,0,44.015   c6.078,6.078,14.041,9.115,22.008,9.115c7.965,0,15.93-3.039,22.007-9.117c2.238-2.238,4.498-4.312,6.784-6.241l106.511,106.511   c-1.927,2.286-4.003,4.546-6.241,6.784c-12.154,12.154-12.154,31.859,0,44.015c6.076,6.078,14.043,9.117,22.008,9.117   c7.965,0,15.93-3.039,22.007-9.117c49.659-49.657,50.275-107.226,42.355-161.735c51.205,6.159,104.439,2.531,150.781-43.812   c46.344-46.343,49.971-99.578,43.814-150.785c54.509,7.92,112.079,7.303,161.737-42.355   C615.038,192.044,615.038,172.339,602.884,160.183z M376.612,235.384c6.633,41.092,7.736,72.129-8.333,98.966l-90.633-90.633   C304.484,227.648,335.52,228.751,376.612,235.384z M107.197,425c21.184-2.753,45.406,0.229,74.491,5.31   c5.081,29.084,8.061,53.305,5.311,74.491L107.197,425z M235.382,376.616c-6.635-41.095-7.738-72.132,8.335-98.969l90.635,90.637   C307.512,384.354,276.477,383.251,235.382,376.616z M430.306,181.69c-5.081-29.087-8.061-53.309-5.31-74.495L504.8,187   C483.616,189.752,459.393,186.771,430.306,181.69z" fill="#006DF0"/>
</g>
<g>
</g>
<g>
</g>
<g>
</g>
<g>
</g>
<g>
</g>
<g>
</g>
<g>
</g>
<g>
</g>
<g>
</g>
<g>
</g>
<g>
</g>
<g>
</g>
<g>
</g>
<g>
</g>
<g>
</g>
</svg>
