<svg xmlns="http://www.w3.org/2000/svg" xmlns:xlink="http://www.w3.org/1999/xlink" version="1.1" x="0px" y="0px" viewBox="0 0 64 80" style="enable-background:new 0 0 64 64;" xml:space="preserve"><g><text transform="matrix(1 0 0 1 -466.04 -22)"><tspan x="0" y="0" style="" font-family="'Montserrat-Regular'" font-size="10px">me</tspan><tspan x="15.92" y="0" style="" font-family="'Montserrat-Regular'" font-size="10px">d</tspan><tspan x="23.58" y="0" style="" font-family="'Montserrat-Regular'" font-size="10px">al</tspan></text><text transform="matrix(1 0 0 1 -365.98 -22)"><tspan x="0" y="0" style="" font-family="'Montserrat-Regular'" font-size="10px">g</tspan><tspan x="7.51" y="0" style="" font-family="'Montserrat-Regular'" font-size="10px">o</tspan><tspan x="15.46" y="0" style="" font-family="'Montserrat-Regular'" font-size="10px">al</tspan></text><text transform="matrix(1 0 0 1 -372.9897 74)"><tspan x="0" y="0" style="" font-family="'Montserrat-Regular'" font-size="10px">pri</tspan><tspan x="16.9" y="0" style="" font-family="'Montserrat-Regular'" font-size="10px">v</tspan><tspan x="23.19" y="0" style="" font-family="'Montserrat-Regular'" font-size="10px">a</tspan><tspan x="29.78" y="0" style="" font-family="'Montserrat-Regular'" font-size="10px">te</tspan></text><text transform="matrix(1 0 0 1 -266.6797 -22)" style="" font-family="'Montserrat-Regular'" font-size="10px">win</text><text transform="matrix(1 0 0 1 -172.29 -22)" style="" font-family="'Montserrat-Regular'" font-size="10px">idea</text><text transform="matrix(1 0 0 1 -84.7598 -22)"><tspan x="0" y="0" style="" font-family="'Montserrat-Regular'" font-size="10px">gr</tspan><tspan x="14.74" y="0" style="" font-family="'Montserrat-Regular'" font-size="10px">o</tspan><tspan x="22.77" y="0" style="" font-family="'Montserrat-Regular'" font-size="10px">wt </tspan></text><text transform="matrix(1 0 0 1 0.5503 -22)" style="" font-family="'Montserrat-Regular'" font-size="10px">discussion</text><text transform="matrix(1 0 0 1 -460.4248 74)" style="" font-family="'Montserrat-Regular'" font-size="10px">mail</text><text transform="matrix(1 0 0 1 -279.4346 74)" style="" font-family="'Montserrat-Regular'" font-size="10px">sending</text><text transform="matrix(1 0 0 1 -175.3647 74)" style="" font-family="'Montserrat-Regular'" font-size="10px">virus</text><text transform="matrix(1 0 0 1 -102.9897 74)" style="" font-family="'Montserrat-Regular'" font-size="10px">chromosome</text><text transform="matrix(1 0 0 1 20.4854 74)" style="" font-family="'Montserrat-Regular'" font-size="10px">DNA</text><text transform="matrix(1 0 0 1 -480.6396 170)"><tspan x="0" y="0" style="" font-family="'Montserrat-Regular'" font-size="10px">M</tspan><tspan x="9.39" y="0" style="" font-family="'Montserrat-Regular'" font-size="10px">a</tspan><tspan x="16.48" y="0" style="" font-family="'Montserrat-Regular'" font-size="10px">gnifying</tspan><tspan x="16.475" y="12" style="" font-family="'Montserrat-Regular'" font-size="10px">g</tspan><tspan x="23.984" y="12" style="" font-family="'Montserrat-Regular'" font-size="10px">l</tspan><tspan x="29.294" y="12" style="" font-family="'Montserrat-Regular'" font-size="10px">a</tspan><tspan x="36.484" y="12" style="" font-family="'Montserrat-Regular'" font-size="10px">ss</tspan></text><text transform="matrix(1 0 0 1 -386.3696 170)"><tspan x="0" y="0" style="" font-family="'Montserrat-Regular'" font-size="10px">a</tspan><tspan x="7.19" y="0" style="" font-family="'Montserrat-Regular'" font-size="10px">stronomy </tspan></text><text transform="matrix(1 0 0 1 -271.7847 170)" style="" font-family="'Montserrat-Regular'" font-size="10px">think</text><text transform="matrix(1 0 0 1 -198.6899 170)"><tspan x="0" y="0" style="" font-family="'Montserrat-Regular'" font-size="10px">presen</tspan><tspan x="41.1" y="0" style="" font-family="'Montserrat-Regular'" font-size="10px">ta</tspan><tspan x="52.69" y="0" style="" font-family="'Montserrat-Regular'" font-size="10px">tion</tspan></text><text transform="matrix(1 0 0 1 -84.5698 170)"><tspan x="0" y="0" style="" font-family="'Montserrat-Regular'" font-size="10px">s</tspan><tspan x="6.09" y="0" style="" font-family="'Montserrat-Regular'" font-size="10px">a</tspan><tspan x="12.68" y="0" style="" font-family="'Montserrat-Regular'" font-size="10px">turn</tspan></text><text transform="matrix(1 0 0 1 7.8301 170)" style="" font-family="'Montserrat-Regular'" font-size="10px">microbe</text><text transform="matrix(1 0 0 1 -488.1099 266)" style="" font-family="'Montserrat-Regular'" font-size="10px">thermometer</text><text transform="matrix(1 0 0 1 -381.5396 266)"><tspan x="0" y="0" style="" font-family="'Montserrat-Regular'" font-size="10px">chemist</tspan><tspan x="45.629" y="0" style="" font-family="'Montserrat-Regular'" font-size="10px">r</tspan><tspan x="52.78" y="0" style="" font-family="'Montserrat-Regular'" font-size="10px">y</tspan></text><text transform="matrix(1 0 0 1 -270.665 266)"><tspan x="0" y="0" style="" font-family="'Montserrat-Regular'" font-size="10px">a</tspan><tspan x="6.59" y="0" style="" font-family="'Montserrat-Regular'" font-size="10px">t</tspan><tspan x="11.82" y="0" style="" font-family="'Montserrat-Regular'" font-size="10px">om</tspan></text><text transform="matrix(1 0 0 1 -187.8296 266)" style="" font-family="'Montserrat-Regular'" font-size="10px">molecule</text><text transform="matrix(1 0 0 1 -97.1299 266)" style="" font-family="'Montserrat-Regular'" font-size="10px">experiment</text><text transform="matrix(1 0 0 1 8.3901 266)" style="" font-family="'Montserrat-Regular'" font-size="10px">timeline</text><text transform="matrix(1 0 0 1 -474.2197 362)"><tspan x="0" y="0" style="" font-family="'Montserrat-Regular'" font-size="10px">Fishbone</tspan><tspan x="0.275" y="12" style="" font-family="'Montserrat-Regular'" font-size="10px">Di</tspan><tspan x="11.064" y="12" style="" font-family="'Montserrat-Regular'" font-size="10px">a</tspan><tspan x="18.155" y="12" style="" font-family="'Montserrat-Regular'" font-size="10px">gram </tspan></text><text transform="matrix(1 0 0 1 -371.3647 362)"><tspan x="0" y="0" style="" font-family="'Montserrat-Regular'" font-size="10px">bina</tspan><tspan x="25.28" y="0" style="" font-family="'Montserrat-Regular'" font-size="10px">r</tspan><tspan x="32.43" y="0" style="" font-family="'Montserrat-Regular'" font-size="10px">y</tspan><tspan x="6.385" y="12" style="" font-family="'Montserrat-Regular'" font-size="10px">tree</tspan></text><text transform="matrix(1 0 0 1 -270.585 362)"><tspan x="0" y="0" style="" font-family="'Montserrat-Regular'" font-size="10px">venn</tspan><tspan x="-10.05" y="12" style="" font-family="'Montserrat-Regular'" font-size="10px">di</tspan><tspan x="0.74" y="12" style="" font-family="'Montserrat-Regular'" font-size="10px">a</tspan><tspan x="7.83" y="12" style="" font-family="'Montserrat-Regular'" font-size="10px">gram</tspan></text><text transform="matrix(1 0 0 1 -174.665 362)"><tspan x="0" y="0" style="" font-family="'Montserrat-Regular'" font-size="10px">a</tspan><tspan x="6.59" y="0" style="" font-family="'Montserrat-Regular'" font-size="10px">t</tspan><tspan x="11.82" y="0" style="" font-family="'Montserrat-Regular'" font-size="10px">om</tspan></text><text transform="matrix(1 0 0 1 -94.9097 362)" style="" font-family="'Montserrat-Regular'" font-size="10px">molecules</text><text transform="matrix(1 0 0 1 -1.1299 362)" style="" font-family="'Montserrat-Regular'" font-size="10px">experiment</text></g><path d="M14.355,60.432h3.496c0-6.443,6.931-9.793,14.574-13.169c7.645,3.376,14.576,6.726,14.576,13.169h3.5  c0-7.122-7.568-10.897-15.376-14.358c7.808-3.461,15.376-7.236,15.376-14.358c0-7.122-7.568-10.898-15.376-14.359  C42.933,13.896,50.501,10.122,50.501,3h-3.5c0,6.442-6.931,9.792-14.576,13.168C24.782,12.792,17.852,9.442,17.852,3h-3.496  c0,7.122,7.566,10.896,15.373,14.358c-7.807,3.461-15.373,7.237-15.373,14.359c0,7.122,7.566,10.896,15.373,14.358  C21.921,49.535,14.355,53.31,14.355,60.432z M17.852,31.716c0-6.443,6.931-9.794,14.574-13.169  c7.645,3.375,14.576,6.726,14.576,13.169c0,6.442-6.931,9.793-14.576,13.168C24.782,41.509,17.852,38.158,17.852,31.716z"/><rect x="27.222" y="40.483" width="10" height="0.603"/><rect x="22.224" y="36.92" width="18.746" height="0.604"/><rect x="18.474" y="33.357" width="26.1" height="0.605"/><rect x="18.474" y="29.795" width="26.1" height="0.603"/><rect x="28.126" y="53.14" width="9.996" height="0.604"/><rect x="23.126" y="56.702" width="18.748" height="0.605"/><rect x="19.375" y="60.266" width="26.103" height="0.604"/><rect x="26.522" y="22.67" width="10.001" height="0.604"/><rect x="22.774" y="26.232" width="18.748" height="0.604"/><rect x="28.197" y="11.01" width="9.998" height="0.604"/><rect x="23.198" y="7.448" width="18.746" height="0.605"/><rect x="19.447" y="3.886" width="26.103" height="0.604"/><ellipse transform="matrix(0.4635 -0.8861 0.8861 0.4635 7.4809 45.9288)" cx="41.669" cy="16.787" rx="1.236" ry="1.236"/><ellipse transform="matrix(0.4636 -0.886 0.886 0.4636 10.6841 48.0307)" cx="45.013" cy="15.191" rx="0.988" ry="0.988"/><ellipse transform="matrix(0.4638 -0.8859 0.8859 0.4638 13.5022 49.8953)" cx="47.973" cy="13.792" rx="0.742" ry="0.742"/><text x="0" y="79" fill="#000000" font-size="5px" font-weight="bold" font-family="'Helvetica Neue', Helvetica, Arial-Unicode, Arial, Sans-serif">Created by dDara</text><text x="0" y="84" fill="#000000" font-size="5px" font-weight="bold" font-family="'Helvetica Neue', Helvetica, Arial-Unicode, Arial, Sans-serif">from the Noun Project</text></svg>