<?xml version="1.0" encoding="iso-8859-1"?>
<!-- Generator: Adobe Illustrator 16.0.0, SVG Export Plug-In . SVG Version: 6.00 Build 0)  -->
<!DOCTYPE svg PUBLIC "-//W3C//DTD SVG 1.1//EN" "http://www.w3.org/Graphics/SVG/1.1/DTD/svg11.dtd">
<svg xmlns="http://www.w3.org/2000/svg" xmlns:xlink="http://www.w3.org/1999/xlink" version="1.1" id="Capa_1" x="0px" y="0px" width="512px" height="512px" viewBox="0 0 140.587 140.586" style="enable-background:new 0 0 140.587 140.586;" xml:space="preserve">
<g>
	<g>
		<path d="M41.389,63.376h9.791c2.119,0,3.86-1.742,3.86-3.854v-9.794c0-2.113-1.741-3.854-3.86-3.854h-9.791    c-2.125,0-3.852,1.732-3.852,3.854v9.794C37.537,61.634,39.263,63.376,41.389,63.376z" fill="#006DF0"/>
		<path d="M71.612,51.965h11.807c2.558,0,4.64-2.088,4.64-4.64V35.521c0-2.554-2.082-4.637-4.64-4.637H71.612    c-2.552,0-4.64,2.083-4.64,4.637v11.804C66.972,49.876,69.061,51.965,71.612,51.965z" fill="#006DF0"/>
		<path d="M80.387,91.605h-11.81c-2.551,0-4.64,2.083-4.64,4.641v11.807c0,2.539,2.089,4.634,4.64,4.634h11.81    c2.545,0,4.64-2.095,4.64-4.634V96.246C85.026,93.7,82.932,91.605,80.387,91.605z" fill="#006DF0"/>
		<path d="M100.821,81.308V67.011c0-3.093-2.521-5.623-5.614-5.623H80.91c-3.087,0-5.62,2.53-5.62,5.623v14.297    c0,3.088,2.533,5.621,5.62,5.621h14.297C98.295,86.929,100.821,84.396,100.821,81.308z" fill="#006DF0"/>
		<path d="M97.339,20.009h6.649c1.431,0,2.618-1.179,2.618-2.612V10.75c0-1.434-1.182-2.612-2.618-2.612h-6.649    c-1.425,0-2.612,1.178-2.612,2.612v6.646C94.727,18.831,95.914,20.009,97.339,20.009z" fill="#006DF0"/>
		<path d="M121.123,70.284h-6.649c-1.438,0-2.612,1.178-2.612,2.619v6.646c0,1.438,1.175,2.619,2.612,2.619h6.649    c1.431,0,2.606-1.17,2.606-2.619v-6.646C123.729,71.462,122.56,70.284,121.123,70.284z" fill="#006DF0"/>
		<path d="M66.75,77.527c1.202,0,2.207-0.998,2.207-2.204v-5.617c0-1.218-1.005-2.21-2.207-2.21h-5.626    c-0.11,0-0.167,0.106-0.292,0.128V21.355L17.677,0H5.66v140.586h12.017l43.154-53.39v-9.779c0.125,0.012,0.183,0.122,0.292,0.122    h5.626V77.527z M55.494,85.296l-32.479,40.177V8.585l32.479,16.076V85.296z" fill="#006DF0"/>
		<path d="M106.789,91.605h-5.626c-1.206,0-2.205,0.999-2.205,2.211v5.607c0,1.219,0.993,2.217,2.205,2.217h5.613    c1.212,0,2.211-0.998,2.211-2.217v-5.607C108.993,92.604,107.995,91.605,106.789,91.605z" fill="#006DF0"/>
		<path d="M127.383,27.143h-19.175c-4.146,0-7.532,3.392-7.532,7.539V53.85c0,4.137,3.386,7.539,7.532,7.539h19.175    c4.152,0,7.544-3.401,7.544-7.539V34.681C134.927,30.534,131.535,27.143,127.383,27.143z" fill="#006DF0"/>
	</g>
</g>
<g>
</g>
<g>
</g>
<g>
</g>
<g>
</g>
<g>
</g>
<g>
</g>
<g>
</g>
<g>
</g>
<g>
</g>
<g>
</g>
<g>
</g>
<g>
</g>
<g>
</g>
<g>
</g>
<g>
</g>
</svg>
